# Created by FreeCAD <http://www.freecad.org>
v 40.000000 0.000000 0.000000
v 20.000000 34.641018 0.000000
v 40.000000 0.000000 20.000000
v 20.000000 34.641018 20.000000
v 20.000000 -34.641018 0.000000
v 20.000000 -34.641018 20.000000
v -20.000000 34.641018 0.000000
v -20.000000 34.641018 20.000000
v -40.000000 0.000000 0.000000
v -20.000000 -34.641018 0.000000
v -36.000000 0.000000 20.000000
v -40.000000 0.000000 20.000000
v -20.000000 -34.641018 20.000000
v -18.000000 -31.176914 20.000000
v 18.000000 -31.176914 20.000000
v -18.000000 31.176914 20.000000
v 36.000000 0.000000 20.000000
v 18.000000 31.176914 20.000000
v 18.000000 31.176914 5.000000
v 36.000000 0.000000 5.000000
v -18.000000 31.176914 5.000000
v -36.000000 0.000000 5.000000
v -18.000000 -31.176914 5.000000
v 18.000000 -31.176914 5.000000
vn 0.866025 0.500000 -0.000000
vn 0.866025 0.500000 0.000000
vn 0.866025 -0.500000 0.000000
vn 0.866025 -0.500000 0.000000
vn 0.000000 1.000000 -0.000000
vn 0.000000 1.000000 0.000000
vn 0.000000 -0.000000 -1.000000
vn 0.000000 0.000000 -1.000000
vn 0.000000 0.000000 -1.000000
vn 0.000000 0.000000 -1.000000
vn 0.000000 0.000000 1.000000
vn 0.000000 0.000000 1.000000
vn 0.000000 0.000000 1.000000
vn 0.000000 0.000000 1.000000
vn 0.000000 0.000000 1.000000
vn 0.000000 0.000000 1.000000
vn 0.000000 0.000000 1.000000
vn 0.000000 0.000000 1.000000
vn 0.000000 0.000000 1.000000
vn 0.000000 0.000000 1.000000
vn 0.000000 0.000000 1.000000
vn 0.000000 0.000000 1.000000
vn 0.000000 -1.000000 0.000000
vn 0.000000 -1.000000 0.000000
vn -0.866025 0.500000 0.000000
vn -0.866025 0.500000 0.000000
vn -0.866025 -0.500000 0.000000
vn -0.866025 -0.500000 0.000000
vn -0.866025 -0.500000 0.000000
vn -0.866025 -0.500000 0.000000
vn 0.000000 -1.000000 0.000000
vn 0.000000 -1.000000 0.000000
vn 0.866025 -0.500000 0.000000
vn 0.866025 -0.500000 0.000000
vn 0.866025 0.500000 0.000000
vn 0.866025 0.500000 -0.000000
vn 0.000000 1.000000 0.000000
vn 0.000000 1.000000 -0.000000
vn -0.866025 0.500000 0.000000
vn -0.866025 0.500000 0.000000
vn 0.000000 0.000000 1.000000
vn 0.000000 0.000000 1.000000
vn 0.000000 0.000000 1.000000
vn 0.000000 0.000000 1.000000
f 1//1 2//1 3//1
f 3//2 2//2 4//2
f 5//3 1//3 6//3
f 6//4 1//4 3//4
f 2//5 7//5 4//5
f 4//6 7//6 8//6
f 7//7 2//7 9//7
f 9//8 2//8 10//8
f 10//9 2//9 5//9
f 5//10 2//10 1//10
f 11//11 12//11 13//11
f 11//12 13//12 14//12
f 15//13 13//13 6//13
f 15//14 14//14 13//14
f 8//15 11//15 16//15
f 8//16 12//16 11//16
f 3//17 17//17 15//17
f 3//18 15//18 6//18
f 18//19 8//19 16//19
f 4//20 18//20 17//20
f 4//21 17//21 3//21
f 4//22 8//22 18//22
f 10//23 5//23 13//23
f 13//24 5//24 6//24
f 7//25 9//25 8//25
f 8//26 9//26 12//26
f 9//27 10//27 12//27
f 12//28 10//28 13//28
f 19//29 20//29 17//29
f 19//30 17//30 18//30
f 21//31 19//31 18//31
f 21//32 18//32 16//32
f 11//33 21//33 16//33
f 22//34 21//34 11//34
f 23//35 22//35 11//35
f 23//36 11//36 14//36
f 24//37 23//37 14//37
f 24//38 14//38 15//38
f 20//39 24//39 15//39
f 20//40 15//40 17//40
f 19//41 21//41 22//41
f 19//42 22//42 23//42
f 19//43 23//43 24//43
f 19//44 24//44 20//44
